<svg width="40" height="40" viewBox="0 0 40 40" fill="none" xmlns="http://www.w3.org/2000/svg">
<path d="M27.8284 11.1891C27.8284 15.5115 24.3237 19.0189 20.0014 19.0189C15.6762 19.0189 12.1716 15.5142 12.1716 11.1891C12.1716 6.86402 15.6762 3.35938 20.0014 3.35938C24.3237 3.35938 27.8284 6.86402 27.8284 11.1891ZM9.82975 20.975C5.50736 20.975 2 24.4796 2 28.802C2 33.1244 5.50464 36.6318 9.82975 36.6318C14.1549 36.6318 17.6595 33.1271 17.6595 28.802C17.6595 24.4796 14.1549 20.975 9.82975 20.975ZM30.1703 20.975C25.8451 20.975 22.3405 24.4796 22.3405 28.8047C22.3405 33.1298 25.8451 36.6345 30.1703 36.6345C34.4926 36.6345 38 33.1298 38 28.8047C38 24.4796 34.4954 20.975 30.1703 20.975Z" fill="#F06A6A"/>
</svg>
