<?xml version="1.0" encoding="utf-8"?>
<!-- Generator: Adobe Illustrator 22.1.0, SVG Export Plug-In . SVG Version: 6.00 Build 0)  -->
<svg version="1.1" id="Layer_1" xmlns="http://www.w3.org/2000/svg" xmlns:xlink="http://www.w3.org/1999/xlink" x="0px" y="0px"
	 viewBox="0 0 200 200" style="enable-background:new 0 0 200 200;" xml:space="preserve">
<style type="text/css">
	.st0{fill:#FFC7DB;}
	.st1{fill:#FF7381;}
	.st2{fill:#FFFFFF;}
	.st3{fill:#002955;}
	.st4{opacity:0.24;fill:#FF7381;enable-background:new    ;}
	.st5{opacity:0.24;fill:#994858;enable-background:new    ;}
</style>
<path class="st0" d="M132.2,77H32.8C23,77,15,68.9,15,59l0,0c0-9.9,8-18,17.8-18h99.4c9.8,0,17.8,8.1,17.8,18l0,0
	C150,68.9,142,77,132.2,77z"/>
<path class="st1" d="M150.2,122H52.8C43,122,35,113.9,35,104l0,0c0-9.9,8-18,17.8-18h97.4c9.8,0,17.8,8.1,17.8,18l0,0
	C168,113.9,160,122,150.2,122z"/>
<path class="st0" d="M167.2,168H73.8C64,168,56,159.9,56,150l0,0c0-9.9,8-18,17.8-18h93.4c9.8,0,17.8,8.1,17.8,18l0,0
	C185,159.9,177,168,167.2,168z"/>
<circle class="st2" cx="32.8" cy="59" r="8"/>
<circle class="st2" cx="52.8" cy="104" r="8"/>
<circle class="st2" cx="73.8" cy="150" r="8"/>
<path class="st3" d="M100,186.6L100,186.6c-2.8,0-5-2.2-5-5v-160c0-2.8,2.2-5,5-5l0,0c2.8,0,5,2.2,5,5v160
	C105,184.3,102.8,186.6,100,186.6z"/>
<rect x="105" y="41" class="st4" width="7.5" height="36"/>
<rect x="105" y="132" class="st4" width="7.5" height="36"/>
<rect x="105" y="86" class="st5" width="7.5" height="36"/>
</svg>
